# xmcd
#
# Track frame offsets:
#	150
#	10747
#	26040
#	42797
#	59567
#	77284
#	100625
#	122334
#	142472
#	162872
#	178018
#	200584
#	218432
#	244354
#	271882
#	273385
#	274888
#	291590
#	306732
#	323110
#	332839
#
# Disc length: 4677 seconds
#
# Revision: 0
# Processed by: cddbd v1.4PL0 Copyright (c) Steve Scherf et al.
# Submitted via: dBpowerAMP V4.0
#
DISCID=3f124315
DTITLE=mattglenn - matt glenn
DYEAR=2003
DGENRE=Country
TTITLE0=nWo
TTITLE1=tim mcgraw
TTITLE2=cledus
TTITLE3=cledus
TTITLE4=cledis
TTITLE5=cledus
TTITLE6=cledus
TTITLE7=cledus
TTITLE8=arms of angels
TTITLE9=dunno
TTITLE10=dunno
TTITLE11=have you forgotten
TTITLE12=dont stop
TTITLE13=t
TTITLE14=t
TTITLE15=t
TTITLE16=t
TTITLE17=t
TTITLE18=t
TTITLE19=t
TTITLE20=t
EXTD=matt glenn and its a alblum i bought
EXTT0=
EXTT1=
EXTT2=
EXTT3=
EXTT4=
EXTT5=
EXTT6=
EXTT7=
EXTT8=
EXTT9=
EXTT10=
EXTT11=
EXTT12=
EXTT13=
EXTT14=
EXTT15=
EXTT16=
EXTT17=
EXTT18=
EXTT19=
EXTT20=
PLAYORDER=
